<svg width="69" height="69" viewBox="0 0 69 69" fill="none" xmlns="http://www.w3.org/2000/svg">
<path d="M34.5 5.75C30.7245 5.75 26.986 6.49364 23.4979 7.93846C20.0097 9.38329 16.8404 11.501 14.1707 14.1707C8.77901 19.5624 5.75 26.875 5.75 34.5C5.75 47.2075 14.0013 57.9887 25.415 61.8125C26.8525 62.0425 27.3125 61.1513 27.3125 60.375V55.5162C19.3488 57.2412 17.6525 51.6637 17.6525 51.6637C16.33 48.3287 14.4613 47.4375 14.4613 47.4375C11.845 45.655 14.6625 45.7125 14.6625 45.7125C17.5375 45.9137 19.0613 48.6738 19.0613 48.6738C21.5625 53.0438 25.7887 51.75 27.4275 51.06C27.6862 49.1913 28.4338 47.9263 29.2388 47.2075C22.8563 46.4888 16.1575 44.0162 16.1575 33.0625C16.1575 29.8712 17.25 27.3125 19.1188 25.2712C18.8313 24.5525 17.825 21.5625 19.4062 17.6813C19.4062 17.6813 21.8213 16.905 27.3125 20.6138C29.5838 19.9813 32.0562 19.665 34.5 19.665C36.9438 19.665 39.4162 19.9813 41.6875 20.6138C47.1787 16.905 49.5938 17.6813 49.5938 17.6813C51.175 21.5625 50.1688 24.5525 49.8813 25.2712C51.75 27.3125 52.8425 29.8712 52.8425 33.0625C52.8425 44.045 46.115 46.46 39.7038 47.1787C40.7388 48.07 41.6875 49.8238 41.6875 52.4975V60.375C41.6875 61.1513 42.1475 62.0713 43.6138 61.8125C55.0275 57.96 63.25 47.2075 63.25 34.5C63.25 30.7245 62.5064 26.986 61.0615 23.4979C59.6167 20.0097 57.499 16.8404 54.8293 14.1707C52.1596 11.501 48.9903 9.38329 45.5021 7.93846C42.014 6.49364 38.2755 5.75 34.5 5.75Z" fill="white"/>
</svg>
