<svg width="26" height="20" viewBox="0 0 26 20" fill="none" xmlns="http://www.w3.org/2000/svg">
<g clip-path="url(#clip0_2661_1664)">
<path d="M5.90911 19.7044V9.65883L2.79368 6.80868L0 5.22705V17.9316C0 18.9125 0.794727 19.7044 1.77277 19.7044H5.90911Z" fill="#4285F4"/>
<path d="M20.0908 19.7043H24.2272C25.2081 19.7043 25.9999 18.9094 25.9999 17.9315V5.22705L22.8356 7.03862L20.0908 9.65873V19.7043Z" fill="#34A853"/>
<path d="M5.90927 9.65883L5.48535 5.73375L5.90927 1.97705L13.0002 7.29527L20.0911 1.97705L20.5653 5.53093L20.0911 9.65883L13.0002 14.977L5.90927 9.65883Z" fill="#EA4335"/>
<path d="M20.0908 1.97694V9.65872L25.9999 5.22694V2.86327C25.9999 0.671047 23.4974 -0.57868 21.7455 0.736047L20.0908 1.97694Z" fill="#FBBC04"/>
<path d="M0 5.22698L2.71771 7.26534L5.90911 9.65876V1.97698L4.25445 0.736093C2.49945 -0.578735 0 0.671093 0 2.86322V5.22698Z" fill="#C5221F"/>
</g>
<defs>
<clipPath id="clip0_2661_1664">
<rect width="26" height="19.6016" fill="white" transform="translate(0 0.199219)"/>
</clipPath>
</defs>
</svg>
