<svg width="1520" height="829" viewBox="0 0 1520 829" fill="none" xmlns="http://www.w3.org/2000/svg">
<g clip-path="url(#clip0_2702_6586)">
<path d="M718.5 113.5L769.5 99L818.5 95L860 113.5L875 133L881.5 152.5L885 189L804.5 184.5L800 162.5L774.5 170.5L769.5 189L742 184.5L707 165.5V146H664L718.5 113.5Z" fill="#D9D9D9"/>
<path d="M483 176H687L688.5 284L778.5 601L787 789L751 825H687H483H150L288 430.5L452.5 284H483V176Z" fill="#D9D9D9"/>
<path d="M148.08 825.23V470C148.104 433.127 162.769 397.772 188.85 371.707C214.932 345.642 250.297 331 287.17 331H396.1" fill="#D9D9D9"/>
<path d="M148.08 825.23V470C148.104 433.127 162.769 397.772 188.85 371.707C214.932 345.642 250.297 331 287.17 331H396.1" stroke="#00A3FF" stroke-width="6" stroke-linecap="round" stroke-linejoin="round"/>
<path d="M459.88 276.35C380.62 314.08 379.53 367.11 406.47 413.22C392.33 415.45 358.11 434.72 285.69 536.98C181.43 684.19 186.43 821.55 389.23 825.05" fill="#D9D9D9"/>
<path d="M459.88 276.35C380.62 314.08 379.53 367.11 406.47 413.22C392.33 415.45 358.11 434.72 285.69 536.98C181.43 684.19 186.43 821.55 389.23 825.05" stroke="#00A3FF" stroke-width="6" stroke-linecap="round" stroke-linejoin="round"/>
<path d="M553 515.4C553 515.4 564.87 550.95 566.61 568.16" stroke="#00A3FF" stroke-width="8" stroke-linecap="round" stroke-linejoin="round"/>
<path d="M699.12 502.53C698.055 524.907 698.426 547.33 700.23 569.66" stroke="#00A3FF" stroke-width="8" stroke-linecap="round" stroke-linejoin="round"/>
<path d="M810.859 389.63C814.999 393.9 816.599 453 853.999 452.3" stroke="#00A3FF" stroke-width="6" stroke-linecap="round" stroke-linejoin="round"/>
<path d="M406.66 407.82C390.28 415.05 366.66 429.1 347.66 458.2C374.44 447.2 466.59 529.6 531.91 510.91C501.54 507.69 436.46 460 406.66 407.82Z" fill="#00A3FF"/>
<path d="M776.76 603.85V603.27C1015.69 625.98 1008.76 521.9 983.76 417.27L921 209.75C911.75 189.57 903.48 198.21 900 191.9C891.95 177.16 888.75 170.69 888.75 170.69C859.39 195.56 800.75 184.69 800.75 184.69C800.75 184.69 800.25 190.06 799.84 206.48C799.43 222.9 781.14 220.48 783.29 242.3L810.79 389.62L734.38 373.33C729.49 346.58 717.03 305.99 687.07 280.33" fill="#D9D9D9"/>
<path d="M776.76 603.85V603.27C1015.69 625.98 1008.76 521.9 983.76 417.27L921 209.75C911.75 189.57 903.48 198.21 900 191.9C891.95 177.16 888.75 170.69 888.75 170.69C859.39 195.56 800.75 184.69 800.75 184.69C800.75 184.69 800.25 190.06 799.84 206.48C799.43 222.9 781.14 220.48 783.29 242.3L810.79 389.62L734.38 373.33C729.49 346.58 717.03 305.99 687.07 280.33" stroke="#00A3FF" stroke-width="6" stroke-linecap="round" stroke-linejoin="round"/>
<path d="M787.92 824.52L786.68 738.98" stroke="#00A3FF" stroke-width="6" stroke-linecap="round" stroke-linejoin="round"/>
<path d="M770.091 380.94C758.031 375.94 741.941 374.07 731.411 372.38C733.397 382.406 734.269 392.622 734.011 402.84C731.741 455.52 711.131 476.08 706.221 495.48C769.571 472.13 774.511 410.35 770.091 380.94Z" fill="#00A3FF"/>
<path d="M675.14 688.87C673.81 700.01 671.25 704.69 645.19 718.09C638.54 721.51 624.53 728.93 605.76 738.34C609.65 786.43 611.76 821.8 611.76 821.8L689.87 822.89C689.87 822.89 687.71 742.5 686.02 660.83C681.69 669.59 675.94 682.09 675.14 688.87Z" fill="#F77901"/>
<path d="M684.27 503C685.27 459.91 668.77 417.64 652.82 389.36C650.24 428.7 641.82 474.3 632.92 489.17C590.92 460.04 559.42 443.34 534.24 430.04C518.33 404.39 504.9 381.52 499.1 364.93C499.18 362.42 499.26 359.87 499.34 357.31L496.6 357.58C503.6 380.65 518.7 413.45 549.96 457.51C556.345 464.961 562.196 472.854 567.47 481.13C574.93 492.82 581.77 525.89 587.72 567.13C622.49 562.3 649.43 561.35 654.32 568.76L684.53 574.54C683.41 516.94 683.74 526.52 684.27 503Z" fill="#F77901"/>
<path d="M396.1 607.24C396.1 607.24 638.65 544.94 654.33 568.72L691.16 651.07C691.16 651.07 676.46 677.72 675.16 688.87C673.86 700.02 671.27 704.69 645.21 718.09C619.15 731.49 483 809.7 385.41 825.05" fill="#D9D9D9"/>
<path d="M396.1 607.24C396.1 607.24 638.65 544.94 654.33 568.72L691.16 651.07C691.16 651.07 676.46 677.72 675.16 688.87C673.86 700.02 671.27 704.69 645.21 718.09C619.15 731.49 483 809.7 385.41 825.05" stroke="#00A3FF" stroke-width="6" stroke-linecap="round" stroke-linejoin="round"/>
<path d="M779.629 715.52C783.529 730.52 792.149 759.38 798.629 758.98C807.829 758.41 802.909 700.8 801.629 683.12C800.999 674.05 794.629 644.87 789.429 630.12C782.639 610.82 751.689 552.05 688.749 573.49L643.279 584.62" fill="#D9D9D9"/>
<path d="M779.629 715.52C783.529 730.52 792.149 759.38 798.629 758.98C807.829 758.41 802.909 700.8 801.629 683.12C800.999 674.05 794.629 644.87 789.429 630.12C782.639 610.82 751.689 552.05 688.749 573.49L643.279 584.62" stroke="#00A3FF" stroke-width="6" stroke-linecap="round" stroke-linejoin="round"/>
<path d="M724.49 648.79L678.02 658.3" stroke="#00A3FF" stroke-width="6" stroke-linecap="round" stroke-linejoin="round"/>
<path d="M727 637.07C726 647.3 720 668.81 727.83 682.94" stroke="#00A3FF" stroke-width="6" stroke-linecap="round" stroke-linejoin="round"/>
<path d="M787.919 682C787.919 682 783.009 723.78 769.049 727C755.089 730.22 754.199 718.44 754.199 718.44" stroke="#00A3FF" stroke-width="6" stroke-linecap="round" stroke-linejoin="round"/>
<path d="M771.169 680.57C771.169 680.57 763.629 717.4 749.459 719.57C735.289 721.74 735.289 710 735.289 710" stroke="#00A3FF" stroke-width="6" stroke-linecap="round" stroke-linejoin="round"/>
<path d="M750.499 678.3C750.499 678.3 740.709 722.45 724.989 705.71C709.269 688.97 710.929 680.44 710.929 680.44C710.929 680.44 718.489 668.31 730.609 687.68" stroke="#00A3FF" stroke-width="6" stroke-linecap="round" stroke-linejoin="round"/>
<path d="M675.771 681.84C640.421 653.16 628.431 580.93 643.371 565.12C643.971 560.12 655.451 568.57 662.371 569.34C679.071 571.2 686.271 571.71 686.271 571.71C679.501 592.53 687.041 617.71 694.791 635.62C698.115 643.534 701.964 651.218 706.311 658.62C704.981 659.29 699.611 661.94 686.841 667.54C679.481 670.81 677.921 676.33 675.771 681.84Z" fill="#00A3FF"/>
<path d="M396.1 573.38C411.71 568.21 453.74 561.05 466.56 590.65" stroke="#00A3FF" stroke-width="6" stroke-linecap="round" stroke-linejoin="round"/>
<path d="M500.92 309.2C500.39 324.8 499.69 345.92 499.1 364.91C504.9 381.5 518.33 404.37 534.24 430.02C559.42 443.32 590.89 460.02 632.92 489.15C641.92 474.28 650.24 428.68 652.82 389.34" fill="#D9D9D9"/>
<path d="M500.92 309.2C500.39 324.8 499.69 345.92 499.1 364.91C504.9 381.5 518.33 404.37 534.24 430.02C559.42 443.32 590.89 460.02 632.92 489.15C641.92 474.28 650.24 428.68 652.82 389.34" stroke="#00A3FF" stroke-width="6" stroke-linecap="round" stroke-linejoin="round"/>
<path d="M488.12 236C480.59 236.67 452.41 241.17 458.38 271C463.12 294.73 484.81 292.62 497.8 289" fill="#D9D9D9"/>
<path d="M488.12 236C480.59 236.67 452.41 241.17 458.38 271C463.12 294.73 484.81 292.62 497.8 289" stroke="#00A3FF" stroke-width="6" stroke-linecap="round" stroke-linejoin="round"/>
<path d="M686.57 180.12C691.91 220.85 689.44 264.57 685.26 297.12Z" fill="#D9D9D9"/>
<path d="M686.57 180.12C691.91 220.85 689.44 264.57 685.26 297.12" stroke="#00A3FF" stroke-width="6" stroke-linecap="round" stroke-linejoin="round"/>
<path d="M685.261 297.08C683.511 310.78 681.451 322.49 679.541 331.14Z" fill="#D9D9D9"/>
<path d="M685.261 297.08C683.511 310.78 681.451 322.49 679.541 331.14" stroke="#00A3FF" stroke-width="6" stroke-linecap="round" stroke-linejoin="round"/>
<path d="M510.29 243.13C516.6 249.51 533.52 286.29 537.65 303.44C537.65 303.44 579.52 289.03 639.51 288.15C639.51 288.15 672.22 288.82 685.26 292.78C685.26 292.78 682.44 353.51 655.92 384.96C629.4 416.41 573.33 407.61 547 388.7C520.67 369.79 516.35 360.77 510.26 340.54C504.17 320.31 488.09 244.89 488.09 244.89L510.29 243.13Z" fill="#D9D9D9" stroke="#00A3FF" stroke-width="6" stroke-linecap="round" stroke-linejoin="round"/>
<path d="M623 340.66C623 340.66 639.35 337.41 646 343.91Z" fill="#D9D9D9"/>
<path d="M623 340.66C623 340.66 639.35 337.41 646 343.91" stroke="#00A3FF" stroke-width="6" stroke-linecap="round" stroke-linejoin="round"/>
<path d="M643.84 264.77L649.92 317.68L631.26 312.91" fill="#D9D9D9"/>
<path d="M643.84 264.77L649.92 317.68L631.26 312.91" stroke="#00A3FF" stroke-width="6" stroke-linecap="round" stroke-linejoin="round"/>
<path d="M663.371 279.08C666.365 279.08 668.791 275.323 668.791 270.69C668.791 266.056 666.365 262.3 663.371 262.3C660.378 262.3 657.951 266.056 657.951 270.69C657.951 275.323 660.378 279.08 663.371 279.08Z" fill="#12111A"/>
<path d="M611.18 278.16C614.173 278.16 616.6 274.404 616.6 269.77C616.6 265.136 614.173 261.38 611.18 261.38C608.186 261.38 605.76 265.136 605.76 269.77C605.76 274.404 608.186 278.16 611.18 278.16Z" fill="#12111A"/>
<path d="M587.67 226C590.406 222.495 594.033 219.787 598.171 218.16C602.31 216.533 606.809 216.046 611.2 216.75" fill="#D9D9D9"/>
<path d="M587.67 226C590.406 222.495 594.033 219.787 598.171 218.16C602.31 216.533 606.809 216.046 611.2 216.75" stroke="#00A3FF" stroke-width="6" stroke-linecap="round" stroke-linejoin="round"/>
<path d="M661 215.83C661 215.83 676 211.93 679.79 224.22Z" fill="#D9D9D9"/>
<path d="M661 215.83C661 215.83 676 211.93 679.79 224.22" stroke="#00A3FF" stroke-width="6" stroke-linecap="round" stroke-linejoin="round"/>
<path d="M721 171.54C719.68 167.68 721.18 162.98 723.94 158.25L723.22 157.44L719.83 166.94C719.83 166.94 709.22 171.51 705.72 157.94C704.64 153.79 707.09 148.73 710.99 143.72L710.88 143.59C696.13 147.01 667.31 152.59 664.71 146.79C661.04 138.58 713.04 116.79 728.88 109.79C737 106.24 765.1 98.5299 780.24 96.3299C790.283 95.0527 800.441 94.9419 810.51 95.9999C811.68 86.6947 809.866 77.2582 805.33 69.0499C800.42 59.9899 790.16 46.5199 781.05 41.6899C690.76 -6.20012 646.71 74.6899 646.71 74.6899C646.71 74.6899 634 39.9999 592.86 38.7599C584.515 38.5352 576.212 40.0156 568.459 43.1106C560.706 46.2057 553.666 50.8501 547.77 56.7599C514.08 90.5299 536.54 128.76 536.54 128.76C536.54 128.76 520.85 120.76 499.69 130.97C474.41 143.2 461.69 171.83 468.26 199.14C475.26 228.14 488.12 255.75 488.12 255.75C570.28 268.47 591.28 187.8 579.18 177.39C597.4 190.87 630.18 199.9 685.7 194.32C698.41 193 714 188 729.87 180.42C726.8 180 723.23 178 721 171.54Z" fill="#121721"/>
<path d="M798.07 163.8L811.14 216.41L885.39 194.45" stroke="#00A3FF" stroke-width="6" stroke-linecap="round" stroke-linejoin="round"/>
<path d="M710.921 143.63C696.171 147.05 667.351 152.63 664.751 146.83C661.081 138.62 713.081 116.83 728.921 109.83C737.041 106.28 765.141 98.57 780.281 96.37C800.031 93.52 871.831 91.7 881.781 155.79L892.411 195.42L821.791 216.36" stroke="#00A3FF" stroke-width="6" stroke-linecap="round" stroke-linejoin="round"/>
<path d="M818.052 153.68C809.682 159.2 778.272 174.06 762.502 173.68" stroke="#00A3FF" stroke-width="6" stroke-linecap="round" stroke-linejoin="round"/>
<path d="M736.131 121.3C736.131 121.3 702.251 144.45 705.761 158C709.271 171.55 719.871 167 719.871 167" stroke="#00A3FF" stroke-width="6" stroke-linecap="round" stroke-linejoin="round"/>
<path d="M744.942 135.13C744.942 135.13 716.532 158.31 721.042 171.54C725.552 184.77 735.782 179.43 735.782 179.43" stroke="#00A3FF" stroke-width="6" stroke-linecap="round" stroke-linejoin="round"/>
<path d="M756.262 152C756.262 152 722.542 180.43 744.112 186.44C765.682 192.45 772.312 187.17 772.312 187.17C772.312 187.17 779.372 175.17 757.152 173.43" stroke="#00A3FF" stroke-width="6" stroke-linecap="round" stroke-linejoin="round"/>
<path d="M790.9 222.17C805.09 240.98 901.23 226.81 917.05 202.51C909.47 192.11 903.43 198.04 900.05 191.9C892 177.16 888.8 170.69 888.8 170.69C872.1 184.84 845.91 187.42 826.43 187.02C817.84 186.944 809.265 186.299 800.76 185.09C800.64 186.58 800.23 192.55 799.88 206.49C799.71 214.56 795.19 218.09 790.9 222.17Z" fill="#00A3FF"/>
<path d="M1315.57 545.92H926.76C924.282 545.919 921.876 546.755 919.932 548.292C917.988 549.829 916.62 551.978 916.05 554.39L862 783.21H721.06C721.06 783.21 713.25 823.55 758.8 823.55H1255.18C1257.66 823.551 1260.06 822.715 1262.01 821.178C1263.95 819.641 1265.32 817.492 1265.89 815.08L1326.27 559.45C1326.65 557.835 1326.66 556.155 1326.3 554.535C1325.94 552.916 1325.22 551.398 1324.19 550.097C1323.16 548.795 1321.85 547.743 1320.36 547.02C1318.87 546.297 1317.23 545.921 1315.57 545.92Z" fill="#00A3FF"/>
<path d="M1283.5 643.11C1277.69 643.11 1271.95 641.906 1266.63 639.575C1261.31 637.243 1256.54 633.834 1252.6 629.563C1248.67 625.292 1245.66 620.252 1243.78 614.761C1241.89 609.269 1241.16 603.447 1241.64 597.66C1243.14 579.54 1243.34 568.38 1245.21 559.97C1247.77 548.41 1270.21 532.5 1296.21 513.26C1309.88 503.22 1319.39 493.87 1324.74 485.21C1330.08 476.55 1332.75 465.81 1332.74 452.99C1332.74 437.17 1327.72 424.72 1317.67 415.64C1307.62 406.56 1295.46 402.013 1281.17 402C1252.79 402 1233.73 417.03 1224 447.09C1220.8 456.764 1214.29 464.999 1205.61 470.35C1196.94 475.701 1186.66 477.826 1176.58 476.35C1170.12 475.42 1163.96 473.038 1158.55 469.382C1153.14 465.727 1148.64 460.893 1145.37 455.244C1142.1 449.595 1140.16 443.279 1139.69 436.771C1139.21 430.263 1140.22 423.732 1142.64 417.67C1151.92 394.176 1165.24 374.953 1182.58 360C1211.32 335.213 1246.42 322.816 1287.9 322.81C1330.22 322.81 1365.7 334.993 1394.34 359.36C1422.98 383.726 1437.31 414.613 1437.34 452.02C1437.34 498.4 1413.51 537.193 1365.85 568.4C1345.11 582.08 1332.55 592.767 1328.18 600.46C1326.49 603.606 1325.24 606.972 1324.48 610.46C1322.32 619.708 1317.1 627.957 1309.67 633.872C1302.24 639.788 1293.04 643.025 1283.54 643.06L1283.5 643.11ZM1289.18 768.47H1285.34C1272.5 768.47 1260.18 763.37 1251.1 754.291C1242.02 745.213 1236.92 732.9 1236.92 720.06C1236.92 713.701 1238.17 707.405 1240.6 701.53C1243.04 695.656 1246.6 690.318 1251.1 685.822C1255.6 681.326 1260.93 677.759 1266.81 675.326C1272.68 672.892 1278.98 671.64 1285.34 671.64H1289.18C1295.54 671.64 1301.83 672.892 1307.71 675.326C1313.58 677.759 1318.92 681.326 1323.41 685.822C1327.91 690.319 1331.47 695.657 1333.91 701.531C1336.34 707.406 1337.59 713.702 1337.59 720.06C1337.59 732.899 1332.49 745.212 1323.41 754.291C1314.33 763.369 1302.02 768.47 1289.18 768.47Z" fill="#F77901"/>
<path d="M295.879 233.64C294.589 234.198 293.196 234.483 291.79 234.476C290.384 234.469 288.995 234.172 287.71 233.601C286.424 233.031 285.271 232.201 284.323 231.163C283.374 230.125 282.651 228.901 282.199 227.57C281.109 224.716 280.164 221.809 279.369 218.86C278.829 216.05 282.269 210.36 286.209 203.58C287.965 200.829 289.199 197.778 289.849 194.58C290.155 191.865 289.698 189.119 288.529 186.65C287.937 185.073 287.009 183.645 285.808 182.463C284.608 181.282 283.165 180.377 281.579 179.81C278.493 178.757 275.12 178.932 272.159 180.3C265.852 183.033 263.066 188.207 263.799 195.82C264.017 198.275 263.363 200.729 261.954 202.751C260.544 204.773 258.468 206.235 256.089 206.88C254.565 207.295 252.966 207.359 251.413 207.067C249.86 206.775 248.394 206.135 247.124 205.194C245.855 204.254 244.815 203.038 244.083 201.637C243.351 200.237 242.946 198.689 242.899 197.11C242.626 191.372 243.766 185.654 246.219 180.46C250.219 172.193 256.822 166.063 266.029 162.07C275.429 157.99 284.482 157.28 293.189 159.94C297.311 161.1 301.114 163.183 304.311 166.031C307.508 168.88 310.014 172.419 311.639 176.38C316.112 186.68 314.556 197.59 306.969 209.11C303.676 214.143 301.912 217.723 301.679 219.85C301.612 220.716 301.662 221.587 301.829 222.44C302.24 224.701 301.877 227.035 300.797 229.064C299.717 231.093 297.984 232.698 295.879 233.62V233.64ZM309.199 260.93L308.349 261.3C306.938 261.913 305.419 262.241 303.88 262.267C302.342 262.293 300.813 262.015 299.382 261.449C297.951 260.883 296.645 260.041 295.54 258.971C294.434 257.9 293.55 256.622 292.939 255.21C291.7 252.363 291.642 249.14 292.778 246.25C293.915 243.36 296.152 241.04 298.999 239.8L299.849 239.43C301.261 238.817 302.779 238.488 304.318 238.463C305.857 238.437 307.385 238.715 308.816 239.281C310.248 239.846 311.553 240.689 312.659 241.759C313.764 242.83 314.648 244.108 315.259 245.52C316.499 248.367 316.557 251.59 315.42 254.48C314.284 257.37 312.046 259.69 309.199 260.93Z" fill="#F77901"/>
<path d="M349.079 105.6C347.162 105.498 345.287 104.998 343.573 104.134C341.859 103.27 340.343 102.059 339.121 100.579C337.899 99.0983 336.998 97.3804 336.474 95.5336C335.951 93.6868 335.816 91.7514 336.079 89.8499C336.909 83.8999 337.179 80.2299 337.949 77.4899C338.949 73.7299 346.669 68.8899 355.619 63.0299C360.285 59.9699 363.592 57.0599 365.539 54.2999C367.569 51.1786 368.688 47.5525 368.769 43.8299C369.055 38.6099 367.625 34.4132 364.479 31.2399C361.353 28.0697 357.128 26.2223 352.679 26.0799C343.345 25.5599 336.792 30.1666 333.019 39.8999C331.784 43.0298 329.487 45.6251 326.531 47.2306C323.574 48.8361 320.146 49.3492 316.849 48.6799C314.732 48.2573 312.739 47.3589 311.02 46.0526C309.301 44.7462 307.902 43.0663 306.928 41.1396C305.954 39.213 305.431 37.0901 305.398 34.9315C305.365 32.773 305.824 30.6352 306.739 28.6799C309.927 21.5241 314.824 15.2606 320.999 10.4399C330.919 2.81324 342.712 -0.633424 356.379 0.0999092C370.325 0.873243 381.799 5.53991 390.799 14.0999C399.799 22.6599 403.955 33.1032 403.269 45.4299C402.422 60.7166 393.855 73.0632 377.569 82.4699C370.489 86.6099 366.155 89.9032 364.569 92.3499C363.958 93.365 363.487 94.4583 363.169 95.5999C362.287 98.6083 360.417 101.232 357.86 103.046C355.303 104.861 352.21 105.76 349.079 105.6ZM348.669 147H347.399C343.167 146.762 339.203 144.856 336.376 141.699C333.549 138.542 332.09 134.392 332.319 130.16C332.426 128.058 332.947 125.998 333.852 124.097C334.758 122.197 336.029 120.494 337.593 119.085C339.157 117.677 340.984 116.591 342.969 115.89C344.953 115.189 347.057 114.887 349.159 115L350.429 115.07C352.532 115.187 354.591 115.719 356.489 116.634C358.386 117.549 360.084 118.83 361.485 120.403C362.886 121.976 363.963 123.81 364.653 125.8C365.344 127.79 365.635 129.897 365.509 132C365.251 136.217 363.336 140.161 360.181 142.971C357.026 145.781 352.888 147.23 348.669 147Z" fill="#F77901"/>
<path d="M3 825.05H1516.44" stroke="#00A3FF" stroke-width="6" stroke-linecap="round" stroke-linejoin="round"/>
</g>
<defs>
<clipPath id="clip0_2702_6586">
<rect width="1519.44" height="828.23" fill="white"/>
</clipPath>
</defs>
</svg>
